<?xml version="1.0" standalone="no"?>
<!DOCTYPE svg PUBLIC "-//W3C//DTD SVG 20010904//EN"
 "http://www.w3.org/TR/2001/REC-SVG-20010904/DTD/svg10.dtd">
<svg version="1.0" xmlns="http://www.w3.org/2000/svg"
 width="256.000000pt" height="256.000000pt" viewBox="0 0 256.000000 256.000000"
 preserveAspectRatio="xMidYMid meet">
<metadata>
Created by potrace 1.16, written by Peter Selinger 2001-2019
</metadata>
<g transform="translate(0.000000,256.000000) scale(0.100000,-0.100000)"
fill="#000000" stroke="none">
<path d="M730 2223 c-305 -147 -556 -268 -558 -269 -6 -3 28 -255 48 -357 11
-56 21 -120 21 -142 2 -40 2 -40 8 -7 3 18 10 32 16 32 13 -2 23 28 24 68 1
17 4 32 9 32 4 0 6 -28 5 -63 -1 -34 -2 -77 -2 -95 -1 -18 -5 -31 -10 -27 -5
3 -12 -3 -14 -12 -3 -10 -4 5 -2 32 1 28 0 41 -2 30 -3 -11 -9 -24 -14 -29 -5
-6 -9 -20 -9 -32 0 -17 -8 -23 -32 -28 -18 -3 -57 -17 -86 -31 -126 -59 -74
-138 131 -200 l94 -29 37 -85 36 -86 -22 -44 c-25 -51 -34 -128 -20 -169 9
-27 7 -32 -19 -51 -68 -51 -106 -171 -76 -243 35 -84 141 -102 289 -48 46 17
103 43 128 59 l45 28 67 -63 c84 -78 195 -154 301 -205 117 -55 166 -66 223
-51 122 33 306 141 425 251 l67 61 90 -20 c50 -11 141 -38 203 -60 62 -21 115
-37 118 -35 2 3 -6 38 -17 79 -12 41 -22 79 -22 85 0 6 15 17 33 25 42 17 74
57 88 110 23 82 -22 231 -98 324 -23 28 -32 47 -26 53 6 6 39 17 74 25 126 29
189 65 189 110 0 21 -60 84 -79 84 -5 0 -2 33 5 73 20 104 18 147 -9 187 -23
33 -23 36 -10 99 21 99 52 355 45 363 -12 12 -1113 538 -1125 538 -7 -1 -262
-121 -567 -267z m570 146 c0 -14 10 -24 29 -32 16 -6 34 -21 40 -33 5 -12 33
-35 61 -50 54 -29 75 -59 56 -80 -8 -8 -31 -3 -91 23 -44 20 -93 35 -108 35
-20 -1 -31 6 -39 24 -12 26 -18 26 -87 -2 -19 -8 -36 -13 -38 -11 -11 12 23
66 55 87 93 63 122 72 122 39z m896 -407 c53 -27 75 -49 67 -67 -4 -13 -1 -14
20 -6 23 9 24 8 22 -27 -3 -53 -23 -98 -51 -117 l-24 -15 3 55 c2 30 0 55 -5
55 -5 0 -6 5 -2 12 4 7 3 8 -4 4 -7 -4 -12 -14 -12 -22 0 -8 -5 -14 -11 -14
-5 0 -7 6 -3 13 6 9 4 9 -7 1 -23 -17 -52 -9 -102 29 -26 19 -56 38 -67 42
-23 7 -27 43 -5 51 8 3 28 1 44 -4 26 -9 30 -8 35 14 8 29 40 28 102 -4z
m-1575 -16 c1 -6 1 -17 0 -25 -2 -7 2 -10 8 -7 6 4 7 -4 1 -24 -8 -27 -6 -32
18 -45 26 -14 26 -14 4 -15 -13 0 -20 -4 -17 -10 3 -5 15 -10 26 -10 14 0 19
-7 19 -28 0 -37 -9 -45 -28 -25 -12 11 -27 14 -59 9 -50 -7 -93 7 -93 29 0 9
-10 16 -27 16 l-28 2 29 4 28 5 -28 29 c-27 28 -27 29 -8 50 38 43 152 76 155
45z m399 -953 c0 -3 -7 -15 -16 -24 -15 -17 -15 -27 1 -134 9 -63 21 -117 25
-120 4 -2 25 35 48 83 44 95 47 143 10 163 -39 21 -13 32 72 30 81 -2 110 -9
83 -18 -7 -3 -13 -10 -13 -17 0 -20 71 -238 76 -234 2 3 22 55 44 116 35 100
38 113 24 127 -14 13 -9 15 48 15 52 -1 60 -3 47 -13 -13 -10 -119 -296 -119
-321 0 -3 7 -6 15 -6 17 0 18 -2 9 -24 -5 -13 -21 -16 -76 -16 -38 0 -78 5
-88 10 -12 7 -28 37 -41 83 -12 39 -25 75 -28 80 -4 4 -22 -24 -41 -62 -28
-59 -31 -72 -20 -86 21 -25 0 -36 -81 -42 -57 -4 -77 -2 -86 8 -11 14 -43 249
-43 320 0 20 -6 42 -14 49 -8 6 -12 18 -9 26 4 11 26 14 89 14 46 0 84 -3 84
-7z m665 -23 c-4 -6 32 -85 79 -175 114 -218 114 -239 4 -223 -44 7 -68 15
-68 23 0 7 5 15 11 17 9 3 9 10 0 26 -9 17 -21 22 -50 22 -21 0 -59 3 -85 6
-39 6 -46 4 -46 -10 0 -9 7 -19 15 -22 8 -4 15 -12 15 -20 0 -11 -18 -14 -75
-14 -61 0 -75 3 -75 15 0 9 11 20 24 25 25 9 50 74 92 244 17 66 16 69 -1 82
-16 12 -7 14 74 14 60 0 90 -4 86 -10z"/>
</g>
</svg>
